<svg xmlns="http://www.w3.org/2000/svg" width="1916" height="547" viewBox="0 0 1916 547">
<g>
<path d="M 702.53 379.96 C661.34,373.48 635.53,337.45 640.06,292.75 C642.98,263.92 659.29,240.39 683.58,229.96 C697.20,224.11 719.17,222.11 734.52,225.33 C763.57,231.41 785.12,252.89 791.64,282.28 C794.04,293.07 793.77,313.29 791.10,323.50 C786.78,340.03 777.01,355.27 764.81,364.52 C757.15,370.33 744.89,376.19 735.70,378.45 C727.45,380.47 710.68,381.24 702.53,379.96 ZM 1760.36 379.52 C1750.67,377.76 1746.86,376.45 1737.50,371.65 C1727.77,366.66 1715.36,354.76 1709.71,345.00 C1702.00,331.68 1698.42,315.15 1699.32,297.00 C1701.10,260.91 1721.91,234.60 1755.50,225.98 C1761.48,224.44 1766.65,223.92 1776.00,223.92 C1790.42,223.92 1800.18,225.97 1811.50,231.37 C1836.77,243.43 1851.25,266.68 1852.68,297.50 C1853.61,317.30 1849.74,332.50 1840.03,347.34 C1823.57,372.46 1791.92,385.25 1760.36,379.52 ZM 1151.53 379.89 C1143.30,378.69 1133.72,375.44 1126.00,371.22 C1118.14,366.93 1104.92,353.92 1100.13,345.76 C1086.64,322.75 1085.52,288.85 1097.42,263.50 C1105.05,247.26 1117.66,235.36 1133.87,229.11 C1143.97,225.22 1152.27,223.82 1165.00,223.84 C1178.52,223.87 1188.11,226.02 1199.91,231.69 C1225.21,243.82 1240.12,272.35 1237.52,303.61 L 1236.82 312.00 L 1175.91 312.00 C1117.43,312.00 1115.00,312.07 1115.00,313.84 C1115.00,317.79 1119.13,331.55 1121.57,335.70 C1127.59,345.98 1137.34,353.53 1149.29,357.16 C1155.02,358.90 1158.03,359.17 1167.37,358.82 C1177.33,358.44 1179.32,358.04 1185.26,355.26 C1193.69,351.32 1200.82,344.69 1204.93,336.99 L 1208.12 331.00 L 1221.06 331.00 C1228.85,331.00 1232.62,330.86 1233.59,332.45 C1234.55,334.01 1232.78,337.24 1229.44,343.91 C1221.66,359.44 1208.49,370.83 1191.85,376.42 C1178.97,380.74 1165.39,381.91 1151.53,379.89 ZM 526.00 378.90 C516.22,377.42 500.98,371.86 491.74,366.38 C480.66,359.82 466.18,345.34 459.62,334.26 C454.21,325.12 448.64,309.96 447.05,300.00 C445.34,289.30 445.77,268.72 447.93,258.29 C452.37,236.77 464.83,216.31 481.65,202.95 C491.14,195.40 506.77,187.73 518.50,184.84 C529.49,182.14 552.34,181.67 563.50,183.90 C586.60,188.53 606.34,200.36 619.01,217.17 C623.99,223.78 632.00,238.08 632.00,240.35 C632.00,240.71 625.31,241.00 617.13,241.00 L 602.26 241.00 L 598.50 234.56 C594.08,227.01 586.63,219.10 579.40,214.30 C567.85,206.63 549.55,202.90 533.53,204.95 C516.48,207.13 504.12,212.96 493.04,224.04 C483.07,234.01 476.54,246.35 473.31,261.32 C471.16,271.33 471.25,292.29 473.50,302.00 C481.97,338.65 510.54,359.97 548.09,357.69 C570.45,356.33 588.70,345.50 599.00,327.50 L 602.15 322.00 L 617.07 322.00 C625.28,322.00 632.00,322.24 632.00,322.52 C632.00,324.41 623.89,338.70 619.45,344.64 C607.42,360.74 588.09,372.82 566.91,377.48 C557.93,379.45 534.94,380.25 526.00,378.90 ZM 1510.00 247.07 L 1490.50 246.50 L 1490.21 236.25 L 1489.93 226.00 L 1509.74 226.00 L 1510.26 212.75 C1510.84,198.03 1512.60,191.35 1517.97,183.55 C1524.97,173.37 1537.33,167.83 1556.32,166.37 L 1565.00 165.70 L 1565.00 186.60 L 1557.72 187.65 C1540.63,190.11 1535.00,197.64 1535.00,218.05 L 1535.00 226.00 L 1601.00 226.00 L 1601.00 378.00 L 1576.00 378.00 L 1576.00 247.00 L 1535.00 247.00 L 1535.00 378.00 L 1510.00 378.00 L 1510.00 247.07 ZM 729.00 356.80 C735.55,355.24 746.05,349.53 750.88,344.88 C763.01,333.23 769.25,314.90 767.49,296.07 C764.55,264.59 744.95,245.62 715.55,245.80 C700.14,245.89 689.49,250.38 679.75,260.91 C669.80,271.65 665.70,283.46 665.66,301.50 C665.63,314.84 667.09,322.20 671.62,331.74 C681.60,352.71 704.37,362.66 729.00,356.80 ZM 1792.26 355.48 C1814.67,347.89 1826.93,328.80 1826.98,301.41 C1827.02,283.82 1821.34,269.29 1810.47,259.12 C1800.33,249.64 1790.68,246.02 1775.50,246.02 C1764.92,246.02 1758.52,247.54 1750.07,252.05 C1734.11,260.55 1725.03,278.66 1725.03,302.00 C1725.03,328.76 1736.71,348.30 1757.03,355.52 C1767.68,359.31 1781.01,359.30 1792.26,355.48 ZM 806.50 226.50 L 831.00 225.94 L 831.00 246.99 L 837.75 240.14 C845.03,232.75 854.48,227.45 865.00,224.86 C872.72,222.96 890.91,223.27 899.00,225.43 C919.87,231.01 934.32,245.48 940.22,266.69 C942.30,274.15 942.41,276.80 942.76,326.25 L 943.13 378.00 L 918.14 378.00 L 917.76 329.25 C917.42,286.64 917.16,279.74 915.64,274.50 C913.42,266.86 910.33,261.62 904.86,256.20 C896.06,247.51 881.89,243.57 867.45,245.82 C849.74,248.57 838.53,258.73 833.31,276.73 C831.89,281.66 831.59,289.43 831.25,330.25 L 830.85 378.00 L 805.99 378.00 L 806.50 226.50 ZM 1374.48 380.08 C1353.08,376.64 1336.65,365.91 1329.40,350.62 C1327.54,346.70 1325.73,341.36 1325.38,338.75 L 1324.73 334.00 L 1350.74 334.00 L 1352.01 338.55 C1353.73,344.69 1360.63,352.18 1367.80,355.69 C1372.72,358.10 1374.96,358.53 1384.13,358.85 C1397.99,359.32 1403.91,357.68 1410.86,351.44 C1418.29,344.75 1420.09,336.27 1415.71,328.50 C1412.75,323.25 1403.06,318.33 1387.20,314.03 C1370.20,309.42 1357.29,305.11 1350.89,301.92 C1342.92,297.94 1334.64,290.01 1331.32,283.19 C1328.84,278.09 1328.55,276.40 1328.53,267.00 C1328.50,257.38 1328.75,256.00 1331.44,250.50 C1335.12,242.99 1342.64,235.46 1350.69,231.21 C1369.04,221.53 1398.69,221.31 1416.32,230.72 C1422.74,234.15 1433.01,244.14 1435.87,249.74 C1438.34,254.59 1441.00,264.15 1441.00,268.21 L 1441.00 271.00 L 1428.75 271.00 L 1416.50 271.00 L 1414.71 264.91 C1412.16,256.24 1405.72,249.92 1396.52,247.08 C1379.45,241.81 1360.93,246.69 1355.25,257.96 C1352.52,263.37 1352.42,268.13 1354.91,273.62 C1358.06,280.54 1365.20,284.86 1382.00,289.98 C1420.56,301.74 1424.58,303.54 1433.32,312.98 C1450.54,331.58 1443.29,361.72 1418.69,373.83 C1415.25,375.53 1409.75,377.63 1406.47,378.50 C1399.49,380.36 1381.70,381.24 1374.48,380.08 ZM 1004.08 375.75 C1003.60,374.51 990.34,340.72 974.60,300.67 C958.87,260.61 946.00,227.42 946.00,226.92 C946.00,226.41 951.90,226.00 959.27,226.00 L 972.55 226.00 L 996.00 289.58 C1008.89,324.55 1019.69,353.31 1019.99,353.49 C1020.29,353.68 1031.08,325.07 1043.97,289.91 L 1067.41 226.00 L 1080.70 226.00 C1088.02,226.00 1094.00,226.24 1094.00,226.54 C1094.00,226.84 1080.66,261.04 1064.35,302.54 L 1034.71 378.00 L 1019.83 378.00 C1005.32,378.00 1004.93,377.94 1004.08,375.75 ZM 1250.24 302.25 L 1250.50 226.50 L 1275.14 226.50 L 1275.18 238.31 C1275.20,244.81 1275.35,249.98 1275.51,249.81 C1275.68,249.64 1277.82,246.77 1280.26,243.44 C1285.19,236.73 1292.10,231.19 1299.59,227.93 C1304.47,225.81 1317.00,223.10 1322.25,223.03 L 1325.00 223.00 L 1325.00 248.70 L 1316.18 249.33 C1293.38,250.94 1281.36,260.48 1276.87,280.50 C1275.85,285.05 1275.52,297.59 1275.51,332.25 L 1275.50 378.00 L 1262.74 378.00 L 1249.99 378.00 ZM 1457.24 302.25 L 1457.50 226.50 L 1483.00 225.94 L 1483.00 378.00 L 1456.99 378.00 ZM 1661.00 226.00 L 1686.00 226.00 L 1686.00 378.00 L 1661.00 378.00 L 1661.00 226.00 ZM 1211.51 288.25 C1211.27,286.74 1210.81,283.37 1210.48,280.77 C1210.15,278.16 1208.33,272.94 1206.44,269.15 C1198.30,252.87 1181.51,244.15 1160.50,245.28 C1136.34,246.58 1119.99,262.05 1115.60,287.75 L 1115.05 291.00 L 1211.95 291.00 ZM 1624.50 378.58 C1612.31,373.14 1610.54,356.69 1621.30,348.90 C1624.60,346.51 1626.30,346.00 1631.00,346.00 C1640.55,346.00 1647.01,351.87 1647.74,361.21 C1648.77,374.26 1636.08,383.75 1624.50,378.58 ZM 1462.46 199.14 C1451.74,192.60 1450.11,179.65 1458.98,171.63 C1463.61,167.46 1466.41,166.56 1472.67,167.27 C1477.57,167.82 1481.16,169.99 1484.44,174.39 C1487.40,178.35 1487.38,189.66 1484.41,193.68 C1479.11,200.83 1469.26,203.28 1462.46,199.14 ZM 1666.45 199.59 C1662.84,198.02 1658.25,192.85 1657.38,189.37 C1657.04,188.01 1656.97,184.63 1657.24,181.87 C1658.01,173.79 1663.45,168.15 1671.33,167.27 C1677.56,166.56 1680.39,167.46 1684.91,171.54 C1693.83,179.60 1691.74,193.87 1680.80,199.59 C1677.44,201.35 1670.48,201.35 1666.45,199.59 ZM 1582.00 199.88 C1575.67,197.35 1572.00,191.42 1572.00,183.70 C1572.00,174.22 1578.04,167.90 1587.74,167.23 C1592.55,166.89 1594.06,167.21 1596.91,169.16 C1608.22,176.93 1608.27,191.08 1597.01,198.75 C1593.43,201.18 1586.57,201.70 1582.00,199.88 Z" fill="rgba(3,3,3,1)"/>
<path d="M 204.50 406.94 C184.20,404.83 160.41,399.30 145.27,393.17 L 138.50 390.42 L 107.66 398.28 C90.69,402.60 76.14,405.89 75.33,405.57 C73.43,404.84 73.60,404.03 81.59,376.64 L 87.96 354.78 L 80.96 347.18 C67.59,332.67 57.40,314.83 52.87,298.00 C50.91,290.75 50.57,287.01 50.55,272.50 C50.52,258.05 50.85,254.16 52.78,246.56 C57.74,227.05 69.51,207.47 86.49,190.50 C107.74,169.27 132.78,154.83 164.66,145.44 C214.11,130.86 269.72,135.64 316.50,158.47 C329.78,164.95 344.06,173.94 351.88,180.74 L 356.25 184.55 L 351.38 188.51 C344.59,194.02 255.90,268.88 253.73,270.92 C252.06,272.50 252.86,273.31 268.23,285.65 C284.18,298.45 309.64,319.20 339.72,343.91 C357.27,358.33 356.90,356.61 344.65,367.05 C321.04,387.16 291.29,400.18 256.88,405.47 C244.15,407.43 216.66,408.20 204.50,406.94 ZM 366.50 331.53 C359.35,326.90 343.43,316.90 331.12,309.31 C318.80,301.71 307.33,294.29 305.62,292.81 C302.86,290.43 302.67,289.95 304.00,288.68 C305.31,287.41 309.82,289.01 340.50,301.60 C359.75,309.51 379.88,317.83 385.22,320.09 L 394.95 324.20 L 393.57 326.85 C391.83,330.20 382.15,340.01 380.63,339.97 C380.01,339.95 373.65,336.15 366.50,331.53 ZM 366.50 278.92 C352.75,277.92 334.38,276.73 325.68,276.25 C313.64,275.60 309.65,275.05 308.97,273.95 C307.04,270.84 310.56,269.72 328.19,267.82 C358.31,264.58 404.49,260.21 404.86,260.55 C405.61,261.25 407.19,278.07 406.64,279.50 C405.90,281.42 399.78,281.33 366.50,278.92 ZM 304.50 256.00 C304.16,255.45 304.18,254.52 304.54,253.93 C306.62,250.57 374.08,205.00 376.98,205.00 C377.94,205.00 381.96,208.60 385.93,213.00 C392.93,220.74 393.08,221.02 390.83,221.91 C389.55,222.41 370.35,230.51 348.16,239.91 C325.98,249.31 307.21,257.00 306.47,257.00 C305.73,257.00 304.84,256.55 304.50,256.00 Z" fill="rgba(5,103,193,1)"/>
</g>
</svg>