<svg xmlns="http://www.w3.org/2000/svg" width="1916" height="547" viewBox="0 0 1916 547">
<g>
<path d="M 205.50 415.38 C180.98,412.85 156.79,407.09 136.48,398.94 C133.78,397.86 130.06,398.60 101.78,405.87 C84.35,410.34 69.18,414.00 68.05,414.00 C64.85,414.00 65.35,411.05 73.10,384.36 L 80.20 359.89 L 74.83 354.20 C58.68,337.09 48.03,318.76 42.90,299.23 C39.95,288.02 39.22,265.44 41.42,253.50 C43.77,240.77 46.44,233.06 52.69,220.90 C59.85,206.99 68.44,195.71 81.19,183.48 C104.81,160.80 133.69,145.27 168.65,136.42 C188.65,131.36 202.70,129.65 224.00,129.66 C259.23,129.67 291.82,137.16 323.30,152.48 C333.53,157.46 353.72,170.36 360.38,176.18 L 364.26 179.56 L 346.39 194.53 C336.57,202.76 313.42,222.32 294.96,238.00 C276.50,253.68 259.67,267.88 257.56,269.57 L 253.73 272.64 L 280.11 294.03 C302.47,312.16 361.42,360.34 363.00,361.77 C364.08,362.75 346.93,377.58 337.10,384.16 C314.67,399.18 292.16,407.93 262.50,413.16 C251.84,415.04 215.79,416.44 205.50,415.38 ZM 697.00 379.55 C672.98,374.40 655.04,360.36 645.05,338.89 C638.90,325.67 636.29,308.26 638.08,292.26 C642.73,250.57 672.54,223.87 714.50,223.84 C738.62,223.82 756.64,231.26 771.82,247.51 C790.70,267.73 796.99,301.07 787.38,330.00 C779.54,353.59 760.18,371.66 735.46,378.47 C727.19,380.75 705.43,381.36 697.00,379.55 ZM 731.18 355.73 C747.94,349.63 758.17,338.51 763.63,320.45 C765.86,313.04 766.15,293.13 764.13,285.00 C758.20,261.07 739.07,245.89 714.78,245.86 C698.97,245.84 687.62,250.37 678.22,260.43 C667.85,271.55 663.66,283.53 663.69,302.00 C663.72,315.48 665.62,324.63 670.18,333.19 C677.37,346.68 687.99,354.59 703.50,358.03 C710.31,359.54 723.78,358.42 731.18,355.73 ZM 1145.55 379.41 C1115.43,372.69 1094.19,349.59 1089.07,318.00 C1087.62,309.07 1087.79,293.02 1089.43,284.00 C1092.45,267.42 1098.65,255.36 1110.09,243.88 C1118.84,235.09 1129.24,229.33 1142.50,225.94 C1152.91,223.28 1171.25,223.09 1182.00,225.54 C1206.96,231.21 1226.27,249.03 1233.41,273.00 C1235.71,280.68 1237.02,294.88 1236.31,304.16 L 1235.70 312.00 L 1174.85 312.00 L 1114.00 312.00 L 1114.00 314.79 C1114.00,319.48 1116.89,329.02 1120.19,335.21 C1123.58,341.56 1132.86,350.87 1138.86,353.93 C1153.64,361.47 1175.23,361.22 1188.63,353.37 C1194.10,350.17 1201.42,342.26 1204.18,336.56 L 1206.40 332.00 L 1219.81 332.00 L 1233.22 332.00 L 1232.54 334.75 C1231.32,339.65 1226.04,349.45 1221.46,355.28 C1213.20,365.80 1199.15,374.91 1185.50,378.59 C1176.81,380.93 1154.44,381.39 1145.55,379.41 ZM 1209.99 286.75 C1209.92,263.56 1188.81,245.00 1162.50,245.00 C1137.43,245.00 1118.65,261.34 1114.52,286.75 L 1113.82 291.00 L 1161.91 291.00 L 1210.00 291.00 L 1209.99 286.75 ZM 1368.56 379.35 C1344.04,374.09 1327.50,358.84 1324.48,338.71 L 1323.77 334.00 L 1336.73 334.00 L 1349.68 334.00 L 1350.93 338.15 C1355.54,353.54 1373.29,362.23 1393.50,359.00 C1408.28,356.64 1417.00,348.64 1417.00,337.44 C1417.00,325.02 1411.47,321.38 1378.18,311.89 C1354.85,305.24 1345.77,300.95 1337.53,292.71 C1331.96,287.15 1330.89,285.44 1328.95,279.05 C1318.95,246.14 1349.05,219.82 1391.76,224.13 C1396.57,224.62 1402.75,225.74 1405.50,226.63 C1424.08,232.63 1437.45,247.49 1439.82,264.76 L 1440.67 271.00 L 1427.83 271.00 C1415.19,271.00 1415.00,270.97 1414.99,268.75 C1414.97,264.87 1410.48,256.63 1406.46,253.10 C1399.39,246.89 1394.94,245.51 1381.93,245.51 C1371.03,245.50 1370.02,245.67 1364.47,248.51 C1356.24,252.72 1352.52,258.12 1352.57,265.81 C1352.64,277.64 1358.46,282.69 1380.00,289.58 C1387.97,292.13 1398.78,295.56 1404.00,297.20 C1417.41,301.42 1424.93,305.35 1431.00,311.32 C1437.78,317.99 1440.99,324.89 1441.71,334.31 C1443.35,356.02 1427.59,374.17 1402.47,379.49 C1393.67,381.35 1377.60,381.29 1368.56,379.35 ZM 1757.86 379.55 C1728.13,373.35 1706.96,351.77 1700.42,321.00 C1698.54,312.16 1698.62,292.75 1700.58,283.21 C1703.85,267.30 1712.32,252.23 1723.67,242.11 C1730.03,236.44 1746.19,228.00 1754.50,226.01 C1762.85,224.01 1775.68,223.22 1784.83,224.13 C1811.56,226.79 1832.15,240.38 1844.04,263.21 C1850.50,275.60 1852.31,283.91 1852.37,301.50 C1852.43,319.55 1851.01,326.30 1844.28,340.00 C1840.35,348.00 1838.18,350.93 1830.55,358.54 C1820.43,368.65 1811.09,374.24 1797.97,378.03 C1788.37,380.81 1767.65,381.59 1757.86,379.55 ZM 1786.12 357.56 C1805.92,353.37 1821.21,337.81 1825.49,317.50 C1828.59,302.80 1826.77,285.11 1820.93,273.23 C1816.63,264.46 1808.52,256.04 1800.26,251.75 C1774.54,238.41 1743.32,247.59 1730.93,272.13 C1726.65,280.61 1725.03,288.82 1725.01,302.09 C1725.00,314.46 1727.07,325.29 1730.87,332.74 C1741.05,352.69 1762.86,362.49 1786.12,357.56 ZM 522.11 378.87 C519.15,378.38 512.68,376.62 507.73,374.96 C458.75,358.55 432.63,305.63 447.08,252.10 C456.05,218.87 483.32,192.59 517.24,184.49 C526.78,182.21 543.25,181.53 554.59,182.96 C582.66,186.48 606.10,200.35 620.44,221.91 C624.28,227.68 630.00,238.83 630.00,240.53 C630.00,240.79 623.31,241.00 615.13,241.00 L 600.26 241.00 L 596.42 234.42 C588.68,221.19 574.51,210.58 559.00,206.40 C550.21,204.04 530.93,203.99 522.00,206.32 C510.01,209.44 499.39,215.48 491.03,223.93 C486.89,228.12 481.99,234.12 480.13,237.26 C472.37,250.45 468.25,269.50 469.33,287.28 C471.14,317.16 485.47,340.25 509.22,351.53 C518.72,356.04 528.08,357.97 540.50,357.97 C560.40,357.97 574.62,352.60 586.57,340.60 C590.45,336.70 595.10,330.91 596.89,327.75 L 600.15 322.00 L 615.07 322.00 C623.28,322.00 630.00,322.24 630.00,322.52 C630.00,322.81 628.37,326.30 626.38,330.27 C613.32,356.37 590.10,373.31 560.25,378.51 C551.01,380.13 530.81,380.32 522.11,378.87 ZM 1621.92 377.73 C1616.39,374.00 1614.00,369.56 1614.00,363.00 C1614.00,353.42 1619.85,347.01 1629.29,346.23 C1637.91,345.51 1644.83,350.48 1647.06,359.00 C1649.16,366.96 1644.60,376.30 1637.27,379.09 C1632.76,380.80 1625.53,380.16 1621.92,377.73 ZM 804.70 378.36 C804.31,377.98 804.00,343.54 804.00,301.83 L 804.00 226.00 L 817.00 226.00 L 830.00 226.00 L 830.00 236.64 L 830.00 247.29 L 833.43 242.80 C838.09,236.70 848.84,229.65 858.50,226.36 C865.42,224.01 868.12,223.64 878.50,223.61 C892.07,223.57 899.60,225.14 910.00,230.18 C918.99,234.54 929.96,245.56 934.09,254.37 C940.49,268.05 940.34,266.46 940.74,325.25 L 941.11 379.00 L 928.56 379.00 L 916.00 379.00 L 915.99 331.25 C915.97,278.56 915.72,275.88 909.80,264.77 C902.23,250.58 884.85,243.00 866.22,245.76 C849.68,248.22 838.61,257.18 832.68,272.89 C830.66,278.25 830.54,280.73 830.03,328.50 L 829.50 378.50 L 817.45 378.78 C810.82,378.93 805.08,378.75 804.70,378.36 ZM 1002.56 375.78 C1001.51,373.22 946.75,233.71 944.34,227.43 C943.84,226.15 945.67,225.98 957.51,226.22 L 971.25 226.50 L 989.12 275.00 C998.95,301.67 1009.54,330.39 1012.64,338.81 C1015.74,347.23 1018.62,353.75 1019.04,353.31 C1019.45,352.86 1029.33,326.40 1041.00,294.50 C1052.67,262.60 1063.10,234.14 1064.18,231.25 L 1066.14 226.00 L 1079.57 226.00 C1086.96,226.00 1092.99,226.11 1092.98,226.25 C1092.97,226.39 1079.53,260.70 1063.11,302.50 L 1033.27 378.50 L 1018.59 378.78 L 1003.92 379.05 L 1002.56 375.78 ZM 1249.00 302.53 L 1249.00 226.00 L 1261.50 226.00 L 1274.00 226.00 L 1274.12 236.75 C1274.18,242.66 1274.16,248.06 1274.07,248.75 C1273.79,250.91 1274.56,250.16 1278.57,244.34 C1285.72,233.95 1297.24,226.86 1310.93,224.42 C1315.09,223.68 1319.74,223.05 1321.25,223.03 L 1324.00 223.00 L 1324.00 236.00 L 1324.00 249.00 L 1319.75 249.02 C1311.86,249.06 1301.69,251.03 1295.85,253.65 C1289.32,256.58 1281.80,263.90 1279.28,269.77 C1274.94,279.92 1274.72,282.69 1274.31,331.50 L 1273.91 378.50 L 1261.45 378.78 L 1249.00 379.06 L 1249.00 302.53 ZM 1457.00 302.50 L 1457.00 226.00 L 1469.50 226.00 L 1482.00 226.00 L 1482.00 302.50 L 1482.00 379.00 L 1469.50 379.00 L 1457.00 379.00 L 1457.00 302.50 ZM 1509.00 313.03 L 1509.00 247.00 L 1499.00 247.00 L 1489.00 247.00 L 1489.00 236.50 L 1489.00 226.00 L 1498.85 226.00 L 1508.71 226.00 L 1509.27 213.75 C1510.20,193.51 1515.10,182.50 1526.59,174.77 C1534.52,169.44 1547.47,166.02 1559.75,166.01 L 1565.00 166.00 L 1565.00 176.36 L 1565.00 186.71 L 1558.30 187.34 C1548.74,188.23 1541.75,191.87 1538.30,197.75 C1535.93,201.80 1535.53,203.74 1535.05,213.76 C1534.75,220.04 1534.69,225.36 1534.92,225.58 C1535.15,225.81 1550.11,226.00 1568.17,226.00 L 1601.01 226.00 L 1600.76 302.25 L 1600.50 378.50 L 1587.75 378.78 L 1575.00 379.06 L 1575.00 313.03 L 1575.00 247.00 L 1555.00 247.00 L 1535.00 247.00 L 1534.88 311.50 C1534.81,346.98 1534.69,376.56 1534.62,377.25 C1534.53,378.16 1531.05,378.58 1521.75,378.78 L 1509.00 379.06 L 1509.00 313.03 ZM 1660.46 377.75 C1660.20,377.06 1660.10,342.75 1660.24,301.50 L 1660.50 226.50 L 1673.25 226.22 L 1686.00 225.94 L 1686.00 302.47 L 1686.00 379.00 L 1673.47 379.00 C1664.36,379.00 1660.81,378.66 1660.46,377.75 ZM 384.56 341.48 C377.53,336.71 358.45,324.61 335.50,310.37 C322.85,302.53 311.49,295.39 310.25,294.51 C307.65,292.66 307.31,290.20 309.54,289.35 C310.39,289.02 325.13,294.50 342.29,301.53 C384.87,318.97 404.43,327.10 404.89,327.56 C406.25,328.91 392.59,344.00 389.99,344.00 C389.05,344.00 386.61,342.87 384.56,341.48 ZM 388.50 280.48 C378.60,279.79 358.12,278.46 343.00,277.52 C327.88,276.58 315.06,275.39 314.52,274.87 C312.81,273.25 315.48,270.57 319.60,269.78 C327.54,268.27 414.47,260.07 415.11,260.77 C415.47,261.17 415.98,266.11 416.23,271.75 L 416.70 282.00 L 411.60 281.86 C408.79,281.79 398.40,281.16 388.50,280.48 ZM 309.36 255.49 C309.04,254.66 309.36,253.27 310.08,252.40 C313.02,248.86 384.07,201.00 386.38,201.00 C387.09,201.00 391.14,204.80 395.37,209.45 C402.09,216.83 402.83,218.02 401.28,218.83 C399.62,219.70 355.35,238.65 325.24,251.39 C317.95,254.48 311.52,257.00 310.96,257.00 C310.40,257.00 309.68,256.32 309.36,255.49 ZM 1463.00 199.88 C1456.67,197.35 1453.00,191.42 1453.00,183.70 C1453.00,174.27 1460.00,167.00 1469.08,167.00 C1475.22,167.00 1477.81,168.02 1481.68,171.98 C1492.01,182.55 1484.38,201.15 1469.80,200.94 C1467.43,200.90 1464.38,200.42 1463.00,199.88 ZM 1579.34 198.54 C1574.59,195.63 1570.99,189.30 1571.02,183.93 C1571.05,179.00 1574.24,172.68 1578.07,169.95 C1582.38,166.88 1591.34,166.09 1595.79,168.39 C1606.87,174.12 1608.03,190.86 1597.84,198.12 C1592.89,201.64 1584.69,201.83 1579.34,198.54 ZM 1665.46 199.20 C1655.96,193.22 1653.34,181.08 1659.86,173.33 C1667.61,164.13 1680.96,164.94 1687.81,175.02 C1689.82,177.97 1690.12,179.45 1689.79,184.74 C1689.38,191.36 1687.66,194.67 1682.70,198.37 C1678.82,201.28 1669.47,201.72 1665.46,199.20 Z" fill="rgba(255,255,255,1)"/>
</g>
</svg>